<svg width="89" height="37" viewBox="0 0 89 37" fill="none" xmlns="http://www.w3.org/2000/svg">
<path d="M87.9947 15.8174C89.5192 7.79391 83.0812 0.480896 74.9292 0.975958L8.58904 5.00471C3.9308 5.2876 0.473128 9.43584 1.03381 14.0689L2.58634 26.8976C3.11166 31.2385 6.7309 34.5435 11.1015 34.6735L76.4587 36.6178C80.803 36.747 84.597 33.6999 85.4083 29.43L87.9947 15.8174Z" fill="white"/>
<path d="M74.9595 1.47504L8.61935 5.50379C4.24847 5.76923 1.0041 9.66157 1.53019 14.0088L3.08272 26.8375C3.57833 30.9329 6.99291 34.0511 11.1163 34.1737L76.4735 36.118C80.5722 36.2399 84.1517 33.3651 84.9171 29.3367L87.5035 15.7241C88.9671 8.02084 82.7862 0.999738 74.9595 1.47504Z" stroke="black" stroke-opacity="0.12"/>
</svg>
