<svg width="131" height="54" viewBox="0 0 1005 407" fill="none" xmlns="http://www.w3.org/2000/svg">
<g clip-path="url(#clip0)">
<path d="M33.2 174.737C16.3591 86.1003 87.4796 5.31253 177.536 10.7815L910.116 55.2702C961.576 58.3953 999.773 104.221 993.579 155.403L976.439 297.032C970.636 344.986 930.654 381.497 882.372 382.933L160.618 404.404C112.626 405.832 70.7123 372.17 61.7501 325L33.2 174.737Z" fill="#39C4FF"/>
<path d="M115.092 185.943V203.268H138.357V214.257H115.092V232.572H141.327V243.858H101.232V174.657H141.327V185.943H115.092ZM185.998 244.551C179.53 244.551 173.59 243.033 168.178 239.997C162.766 236.961 158.476 232.77 155.308 227.424C152.14 222.012 150.556 215.907 150.556 209.109C150.556 202.377 152.14 196.338 155.308 190.992C158.476 185.58 162.766 181.356 168.178 178.32C173.59 175.284 179.53 173.766 185.998 173.766C192.532 173.766 198.472 175.284 203.818 178.32C209.23 181.356 213.487 185.58 216.589 190.992C219.757 196.338 221.341 202.377 221.341 209.109C221.341 215.907 219.757 222.012 216.589 227.424C213.487 232.77 209.23 236.961 203.818 239.997C198.406 243.033 192.466 244.551 185.998 244.551ZM185.998 232.176C190.156 232.176 193.819 231.252 196.987 229.404C200.155 227.49 202.63 224.784 204.412 221.286C206.194 217.788 207.085 213.729 207.085 209.109C207.085 204.489 206.194 200.463 204.412 197.031C202.63 193.533 200.155 190.86 196.987 189.012C193.819 187.164 190.156 186.24 185.998 186.24C181.84 186.24 178.144 187.164 174.91 189.012C171.742 190.86 169.267 193.533 167.485 197.031C165.703 200.463 164.812 204.489 164.812 209.109C164.812 213.729 165.703 217.788 167.485 221.286C169.267 224.784 171.742 227.49 174.91 229.404C178.144 231.252 181.84 232.176 185.998 232.176ZM278.678 174.756V185.943H260.264V243.858H246.404V185.943H227.99V174.756H278.678ZM331.162 230.691H303.64L299.086 243.858H284.533L309.382 174.657H325.519L350.368 243.858H335.716L331.162 230.691ZM327.4 219.603L317.401 190.695L307.402 219.603H327.4ZM383.516 244.551C378.698 244.551 374.342 243.726 370.448 242.076C366.62 240.426 363.584 238.05 361.34 234.948C359.096 231.846 357.941 228.183 357.875 223.959H372.725C372.923 226.797 373.913 229.041 375.695 230.691C377.543 232.341 380.051 233.166 383.219 233.166C386.453 233.166 388.994 232.407 390.842 230.889C392.69 229.305 393.614 227.259 393.614 224.751C393.614 222.705 392.987 221.022 391.733 219.702C390.479 218.382 388.895 217.359 386.981 216.633C385.133 215.841 382.559 214.983 379.259 214.059C374.771 212.739 371.108 211.452 368.27 210.198C365.498 208.878 363.089 206.931 361.043 204.357C359.063 201.717 358.073 198.219 358.073 193.863C358.073 189.771 359.096 186.207 361.142 183.171C363.188 180.135 366.059 177.825 369.755 176.241C373.451 174.591 377.675 173.766 382.427 173.766C389.555 173.766 395.33 175.515 399.752 179.013C404.24 182.445 406.715 187.263 407.177 193.467H391.931C391.799 191.091 390.776 189.144 388.862 187.626C387.014 186.042 384.539 185.25 381.437 185.25C378.731 185.25 376.553 185.943 374.903 187.329C373.319 188.715 372.527 190.728 372.527 193.368C372.527 195.216 373.121 196.767 374.309 198.021C375.563 199.209 377.081 200.199 378.863 200.991C380.711 201.717 383.285 202.575 386.585 203.565C391.073 204.885 394.736 206.205 397.574 207.525C400.412 208.845 402.854 210.825 404.9 213.465C406.946 216.105 407.969 219.57 407.969 223.86C407.969 227.556 407.012 230.988 405.098 234.156C403.184 237.324 400.379 239.865 396.683 241.779C392.987 243.627 388.598 244.551 383.516 244.551ZM457.435 185.943V203.268H480.7V214.257H457.435V232.572H483.67V243.858H443.575V174.657H483.67V185.943H457.435ZM492.701 216.237C492.701 210.693 493.79 205.776 495.968 201.486C498.212 197.196 501.248 193.896 505.076 191.586C508.904 189.276 513.161 188.121 517.847 188.121C521.411 188.121 524.81 188.913 528.044 190.497C531.278 192.015 533.852 194.061 535.766 196.635V170.598H549.824V243.858H535.766V235.74C534.05 238.446 531.641 240.624 528.539 242.274C525.437 243.924 521.84 244.749 517.748 244.749C513.128 244.749 508.904 243.561 505.076 241.185C501.248 238.809 498.212 235.476 495.968 231.186C493.79 226.83 492.701 221.847 492.701 216.237ZM535.865 216.435C535.865 213.069 535.205 210.198 533.885 207.822C532.565 205.38 530.783 203.532 528.539 202.278C526.295 200.958 523.886 200.298 521.312 200.298C518.738 200.298 516.362 200.925 514.184 202.179C512.006 203.433 510.224 205.281 508.838 207.723C507.518 210.099 506.858 212.937 506.858 216.237C506.858 219.537 507.518 222.441 508.838 224.949C510.224 227.391 512.006 229.272 514.184 230.592C516.428 231.912 518.804 232.572 521.312 232.572C523.886 232.572 526.295 231.945 528.539 230.691C530.783 229.371 532.565 227.523 533.885 225.147C535.205 222.705 535.865 219.801 535.865 216.435ZM615.138 189.012V243.858H601.179V236.928C599.397 239.304 597.054 241.185 594.15 242.571C591.312 243.891 588.21 244.551 584.844 244.551C580.554 244.551 576.759 243.66 573.459 241.878C570.159 240.03 567.552 237.357 565.638 233.859C563.79 230.295 562.866 226.071 562.866 221.187V189.012H576.726V219.207C576.726 223.563 577.815 226.929 579.993 229.305C582.171 231.615 585.141 232.77 588.903 232.77C592.731 232.77 595.734 231.615 597.912 229.305C600.09 226.929 601.179 223.563 601.179 219.207V189.012H615.138ZM625.249 216.435C625.249 210.759 626.404 205.809 628.714 201.585C631.024 197.295 634.225 193.995 638.317 191.685C642.409 189.309 647.095 188.121 652.375 188.121C659.173 188.121 664.783 189.837 669.205 193.269C673.693 196.635 676.696 201.387 678.214 207.525H663.265C662.473 205.149 661.12 203.301 659.206 201.981C657.358 200.595 655.048 199.902 652.276 199.902C648.316 199.902 645.181 201.354 642.871 204.258C640.561 207.096 639.406 211.155 639.406 216.435C639.406 221.649 640.561 225.708 642.871 228.612C645.181 231.45 648.316 232.869 652.276 232.869C657.886 232.869 661.549 230.361 663.265 225.345H678.214C676.696 231.285 673.693 236.004 669.205 239.502C664.717 243 659.107 244.749 652.375 244.749C647.095 244.749 642.409 243.594 638.317 241.284C634.225 238.908 631.024 235.608 628.714 231.384C626.404 227.094 625.249 222.111 625.249 216.435ZM684.804 216.237C684.804 210.693 685.893 205.776 688.071 201.486C690.315 197.196 693.318 193.896 697.08 191.586C700.908 189.276 705.165 188.121 709.851 188.121C713.943 188.121 717.507 188.946 720.543 190.596C723.645 192.246 726.12 194.325 727.968 196.833V189.012H741.927V243.858H727.968V235.839C726.186 238.413 723.711 240.558 720.543 242.274C717.441 243.924 713.844 244.749 709.752 244.749C705.132 244.749 700.908 243.561 697.08 241.185C693.318 238.809 690.315 235.476 688.071 231.186C685.893 226.83 684.804 221.847 684.804 216.237ZM727.968 216.435C727.968 213.069 727.308 210.198 725.988 207.822C724.668 205.38 722.886 203.532 720.642 202.278C718.398 200.958 715.989 200.298 713.415 200.298C710.841 200.298 708.465 200.925 706.287 202.179C704.109 203.433 702.327 205.281 700.941 207.723C699.621 210.099 698.961 212.937 698.961 216.237C698.961 219.537 699.621 222.441 700.941 224.949C702.327 227.391 704.109 229.272 706.287 230.592C708.531 231.912 710.907 232.572 713.415 232.572C715.989 232.572 718.398 231.945 720.642 230.691C722.886 229.371 724.668 227.523 725.988 225.147C727.308 222.705 727.968 219.801 727.968 216.435ZM771.6 200.397V226.929C771.6 228.777 772.029 230.13 772.887 230.988C773.811 231.78 775.329 232.176 777.441 232.176H783.876V243.858H775.164C763.482 243.858 757.641 238.182 757.641 226.83V200.397H751.107V189.012H757.641V175.449H771.6V189.012H783.876V200.397H771.6ZM800.874 182.478C798.432 182.478 796.386 181.719 794.736 180.201C793.152 178.617 792.36 176.67 792.36 174.36C792.36 172.05 793.152 170.136 794.736 168.618C796.386 167.034 798.432 166.242 800.874 166.242C803.316 166.242 805.329 167.034 806.913 168.618C808.563 170.136 809.388 172.05 809.388 174.36C809.388 176.67 808.563 178.617 806.913 180.201C805.329 181.719 803.316 182.478 800.874 182.478ZM807.705 189.012V243.858H793.845V189.012H807.705ZM845.753 244.749C840.473 244.749 835.721 243.594 831.497 241.284C827.273 238.908 823.94 235.575 821.498 231.285C819.122 226.995 817.934 222.045 817.934 216.435C817.934 210.825 819.155 205.875 821.597 201.585C824.105 197.295 827.504 193.995 831.794 191.685C836.084 189.309 840.869 188.121 846.149 188.121C851.429 188.121 856.214 189.309 860.504 191.685C864.794 193.995 868.16 197.295 870.602 201.585C873.11 205.875 874.364 210.825 874.364 216.435C874.364 222.045 873.077 226.995 870.503 231.285C867.995 235.575 864.563 238.908 860.207 241.284C855.917 243.594 851.099 244.749 845.753 244.749ZM845.753 232.671C848.261 232.671 850.604 232.077 852.782 230.889C855.026 229.635 856.808 227.787 858.128 225.345C859.448 222.903 860.108 219.933 860.108 216.435C860.108 211.221 858.722 207.228 855.95 204.456C853.244 201.618 849.911 200.199 845.951 200.199C841.991 200.199 838.658 201.618 835.952 204.456C833.312 207.228 831.992 211.221 831.992 216.435C831.992 221.649 833.279 225.675 835.853 228.513C838.493 231.285 841.793 232.671 845.753 232.671ZM914.924 188.22C921.458 188.22 926.738 190.299 930.764 194.457C934.79 198.549 936.803 204.291 936.803 211.683V243.858H922.943V213.564C922.943 209.208 921.854 205.875 919.676 203.565C917.498 201.189 914.528 200.001 910.766 200.001C906.938 200.001 903.902 201.189 901.658 203.565C899.48 205.875 898.391 209.208 898.391 213.564V243.858H884.531V189.012H898.391V195.843C900.239 193.467 902.582 191.619 905.42 190.299C908.324 188.913 911.492 188.22 914.924 188.22Z" fill="white"/>
</g>
<defs>
<clipPath id="clip0">
<rect width="1005" height="406.883" fill="white"/>
</clipPath>
</defs>
</svg>
