<svg width="131" height="54" viewBox="0 0 131 54" fill="none" xmlns="http://www.w3.org/2000/svg">
<path d="M4.32632 22.7701C2.13177 11.2198 11.3995 0.692279 23.1349 1.40495L118.636 7.20459C125.341 7.61182 130.319 13.5835 129.512 20.253L127.277 38.7207C126.521 44.9696 121.31 49.7274 115.019 49.9146L20.9331 52.7135C14.6793 52.8995 9.21747 48.513 8.0496 42.3663L4.32632 22.7701Z" fill="#39C4FF"/>
<path d="M20.8487 30.0626H16.1306L15.3499 32.3198H12.8551L17.115 20.4566H19.8814L24.1412 32.3198H21.6294L20.8487 30.0626ZM20.2038 28.1618L18.4897 23.206L16.7755 28.1618H20.2038ZM34.3721 24.1395C34.3721 24.7731 34.2194 25.3671 33.9139 25.9215C33.6197 26.4759 33.1501 26.9228 32.5052 27.2623C31.8716 27.6017 31.0683 27.7714 30.0952 27.7714H28.1096V32.3198H25.7335V20.4736H30.0952C31.0117 20.4736 31.7924 20.632 32.4373 20.9488C33.0823 21.2656 33.5631 21.7012 33.8799 22.2556C34.208 22.81 34.3721 23.438 34.3721 24.1395ZM29.9934 25.8536C30.6497 25.8536 31.1362 25.7065 31.453 25.4124C31.7698 25.1069 31.9282 24.6826 31.9282 24.1395C31.9282 22.9854 31.2833 22.4084 29.9934 22.4084H28.1096V25.8536H29.9934ZM47.367 30.0626H42.6488L41.8681 32.3198H39.3733L43.6332 20.4566H46.3996L50.6595 32.3198H48.1477L47.367 30.0626ZM46.722 28.1618L45.0079 23.206L43.2938 28.1618H46.722ZM51.6408 27.6187C51.6408 26.6456 51.8388 25.797 52.2348 25.0729C52.6308 24.3375 53.1795 23.7718 53.881 23.3758C54.5825 22.9684 55.3858 22.7648 56.291 22.7648C57.4564 22.7648 58.4181 23.059 59.1762 23.6473C59.9456 24.2243 60.4604 25.039 60.7206 26.0912H58.1579C58.0221 25.6839 57.7902 25.3671 57.462 25.1408C57.1452 24.9032 56.7492 24.7844 56.274 24.7844C55.5952 24.7844 55.0577 25.0333 54.6617 25.5312C54.2657 26.0177 54.0677 26.7135 54.0677 27.6187C54.0677 28.5125 54.2657 29.2084 54.6617 29.7062C55.0577 30.1927 55.5952 30.436 56.274 30.436C57.2358 30.436 57.8637 30.006 58.1579 29.1461H60.7206C60.4604 30.1644 59.9456 30.9734 59.1762 31.5731C58.4068 32.1727 57.4451 32.4726 56.291 32.4726C55.3858 32.4726 54.5825 32.2746 53.881 31.8786C53.1795 31.4712 52.6308 30.9055 52.2348 30.1814C51.8388 29.446 51.6408 28.5917 51.6408 27.6187ZM61.8503 27.5847C61.8503 26.6343 62.037 25.7914 62.4103 25.056C62.795 24.3205 63.3098 23.7548 63.9548 23.3588C64.611 22.9628 65.3408 22.7648 66.1441 22.7648C66.8456 22.7648 67.4566 22.9062 67.9771 23.1891C68.5088 23.4719 68.9331 23.8283 69.2499 24.2583V22.9175H71.6429V32.3198H69.2499V30.9451C68.9444 31.3864 68.5201 31.7541 67.9771 32.0483C67.4453 32.3311 66.8286 32.4726 66.1271 32.4726C65.3351 32.4726 64.611 32.2689 63.9548 31.8616C63.3098 31.4543 62.795 30.8829 62.4103 30.1475C62.037 29.4007 61.8503 28.5465 61.8503 27.5847ZM69.2499 27.6187C69.2499 27.0416 69.1368 26.5495 68.9105 26.1421C68.6842 25.7235 68.3787 25.4067 67.994 25.1917C67.6093 24.9654 67.1964 24.8523 66.7551 24.8523C66.3138 24.8523 65.9065 24.9598 65.5331 25.1748C65.1598 25.3897 64.8543 25.7065 64.6167 26.1252C64.3904 26.5325 64.2772 27.019 64.2772 27.5847C64.2772 28.1505 64.3904 28.6483 64.6167 29.0782C64.8543 29.4969 65.1598 29.8193 65.5331 30.0456C65.9178 30.2719 66.3251 30.3851 66.7551 30.3851C67.1964 30.3851 67.6093 30.2776 67.994 30.0626C68.3787 29.8363 68.6842 29.5195 68.9105 29.1122C69.1368 28.6935 69.2499 28.1957 69.2499 27.6187ZM73.3526 27.5847C73.3526 26.6343 73.5392 25.7914 73.9126 25.056C74.2973 24.3205 74.8178 23.7548 75.474 23.3588C76.1303 22.9628 76.86 22.7648 77.6634 22.7648C78.2743 22.7648 78.857 22.9006 79.4114 23.1721C79.9659 23.4323 80.4071 23.7831 80.7352 24.2243V19.7608H83.1452V32.3198H80.7352V30.9281C80.4411 31.392 80.0281 31.7654 79.4963 32.0483C78.9645 32.3311 78.3479 32.4726 77.6464 32.4726C76.8544 32.4726 76.1303 32.2689 75.474 31.8616C74.8178 31.4543 74.2973 30.8829 73.9126 30.1475C73.5392 29.4007 73.3526 28.5465 73.3526 27.5847ZM80.7522 27.6187C80.7522 27.0416 80.6391 26.5495 80.4128 26.1421C80.1865 25.7235 79.881 25.4067 79.4963 25.1917C79.1116 24.9654 78.6986 24.8523 78.2574 24.8523C77.8161 24.8523 77.4088 24.9598 77.0354 25.1748C76.662 25.3897 76.3565 25.7065 76.1189 26.1252C75.8927 26.5325 75.7795 27.019 75.7795 27.5847C75.7795 28.1505 75.8927 28.6483 76.1189 29.0782C76.3565 29.4969 76.662 29.8193 77.0354 30.0456C77.4201 30.2719 77.8274 30.3851 78.2574 30.3851C78.6986 30.3851 79.1116 30.2776 79.4963 30.0626C79.881 29.8363 80.1865 29.5195 80.4128 29.1122C80.6391 28.6935 80.7522 28.1957 80.7522 27.6187ZM94.2062 27.415C94.2062 27.7544 94.1836 28.0599 94.1383 28.3315H87.2648C87.3214 29.0104 87.559 29.5421 87.9776 29.9268C88.3963 30.3115 88.9111 30.5039 89.522 30.5039C90.4046 30.5039 91.0325 30.1248 91.4059 29.3668H93.9686C93.6971 30.2719 93.1766 31.0187 92.4072 31.607C91.6378 32.1841 90.6931 32.4726 89.573 32.4726C88.6678 32.4726 87.8532 32.2746 87.129 31.8786C86.4162 31.4712 85.8562 30.8999 85.4488 30.1644C85.0528 29.429 84.8548 28.5804 84.8548 27.6187C84.8548 26.6456 85.0528 25.7914 85.4488 25.056C85.8448 24.3205 86.3993 23.7548 87.1121 23.3588C87.8249 22.9628 88.6452 22.7648 89.573 22.7648C90.4668 22.7648 91.2645 22.9571 91.966 23.3418C92.6788 23.7265 93.2275 24.2753 93.6122 24.9881C94.0082 25.6896 94.2062 26.4985 94.2062 27.415ZM91.7453 26.7361C91.734 26.1252 91.5134 25.6386 91.0834 25.2766C90.6535 24.9032 90.1274 24.7165 89.5051 24.7165C88.9167 24.7165 88.4189 24.8976 88.0116 25.2596C87.6156 25.6104 87.3723 26.1025 87.2818 26.7361H91.7453ZM107.617 22.7818C108.771 22.7818 109.699 23.1382 110.4 23.851C111.113 24.5525 111.47 25.5368 111.47 26.804V32.3198H109.094V27.1265C109.094 26.3911 108.907 25.831 108.533 25.4463C108.16 25.0503 107.651 24.8523 107.006 24.8523C106.361 24.8523 105.846 25.0503 105.462 25.4463C105.088 25.831 104.902 26.3911 104.902 27.1265V32.3198H102.526V27.1265C102.526 26.3911 102.339 25.831 101.965 25.4463C101.592 25.0503 101.083 24.8523 100.438 24.8523C99.7818 24.8523 99.2613 25.0503 98.8766 25.4463C98.5032 25.831 98.3165 26.3911 98.3165 27.1265V32.3198H95.9405V22.9175H98.3165V24.0546C98.622 23.6586 99.0124 23.3475 99.4876 23.1212C99.9741 22.8949 100.506 22.7818 101.083 22.7818C101.818 22.7818 102.475 22.9402 103.052 23.257C103.629 23.5624 104.076 24.0037 104.392 24.5807C104.698 24.0377 105.139 23.602 105.716 23.2739C106.305 22.9458 106.938 22.7818 107.617 22.7818ZM122.719 22.9175L116.898 36.7664H114.369L116.406 32.0822L112.638 22.9175H115.303L117.73 29.4856L120.19 22.9175H122.719Z" fill="white"/>
</svg>
